<?xml version="1.0" encoding="utf-8"?>
<!-- Generator: Adobe Illustrator 16.0.0, SVG Export Plug-In . SVG Version: 6.00 Build 0)  -->
<!DOCTYPE svg PUBLIC "-//W3C//DTD SVG 1.1//EN" "http://www.w3.org/Graphics/SVG/1.1/DTD/svg11.dtd">
<svg version="1.1" id="Capa_1" xmlns="http://www.w3.org/2000/svg" xmlns:xlink="http://www.w3.org/1999/xlink" x="0px" y="0px"
	 width="512px" height="512px" viewBox="0 0 512 512" enable-background="new 0 0 512 512" xml:space="preserve">
<g>
	<g>
		<g>
			<path fill="#871F92" d="M69.471,166.95H68.16c-16.813,0-30.522,13.752-30.522,30.521v132.887
				c0,16.835,13.709,30.543,30.522,30.543h1.334c16.813,0,30.521-13.753,30.521-30.543V197.471
				C99.993,180.702,86.263,166.95,69.471,166.95z"/>
			<path fill="#871F92" d="M114.62,381.649c0,15.437,12.615,28.008,28.05,28.008h29.976v71.777
				c0,16.857,13.752,30.565,30.521,30.565h1.312c16.835,0,30.565-13.729,30.565-30.565v-71.777h41.891v71.777
				c0,16.857,13.796,30.565,30.565,30.565h1.291c16.834,0,30.543-13.729,30.543-30.565v-71.777h29.996
				c15.413,0,28.029-12.571,28.029-28.008V171.826H114.62V381.649z"/>
			<path fill="#871F92" d="M326.411,44.58l23.81-36.752c1.531-2.318,0.853-5.487-1.486-6.997c-2.317-1.53-5.488-0.896-6.997,1.487
				l-24.684,38.021c-18.518-7.586-39.2-11.85-61.043-11.85c-21.864,0-42.503,4.263-61.064,11.85l-24.64-38.021
				c-1.508-2.383-4.701-3.017-7.04-1.487c-2.339,1.508-3.018,4.679-1.487,6.997L185.61,44.58
				c-42.962,21.055-71.931,60.737-71.931,106.256c0,2.798,0.175,5.553,0.416,8.286h283.854c0.24-2.733,0.393-5.488,0.393-8.286
				C398.343,105.317,369.352,65.635,326.411,44.58z M190.202,110.389c-7.543,0-13.665-6.079-13.665-13.643
				c0-7.564,6.122-13.621,13.665-13.621c7.586,0,13.665,6.056,13.665,13.621C203.867,104.312,197.745,110.389,190.202,110.389z
				 M321.799,110.389c-7.543,0-13.666-6.079-13.666-13.643c0-7.564,6.123-13.621,13.666-13.621c7.564,0,13.643,6.056,13.643,13.621
				C335.441,104.311,329.363,110.389,321.799,110.389z"/>
			<path fill="#871F92" d="M443.818,166.95h-1.269c-16.813,0-30.564,13.752-30.564,30.521v132.887
				c0,16.835,13.774,30.543,30.564,30.543h1.291c16.834,0,30.521-13.753,30.521-30.543V197.471
				C474.362,180.702,460.631,166.95,443.818,166.95z"/>
		</g>
	</g>
</g>
</svg>
